<svg width="55" height="55" viewBox="0 0 55 55" fill="none" xmlns="http://www.w3.org/2000/svg">
<path d="M27.2949 37.5305V32.9813" stroke="#141B34" stroke-width="3.41186" stroke-linecap="round"/>
<path d="M9.70748 42.8638C10.219 46.6629 13.3657 49.6392 17.195 49.8153C20.4172 49.9634 23.6904 50.0407 27.2949 50.0407C30.8994 50.0407 34.1726 49.9634 37.3948 49.8153C41.2241 49.6392 44.3709 46.6629 44.8824 42.8638C45.2162 40.3844 45.4915 37.8435 45.4915 35.2559C45.4915 32.6683 45.2162 30.1275 44.8824 27.6481C44.3709 23.849 41.2241 20.8726 37.3948 20.6966C34.1726 20.5485 30.8994 20.4712 27.2949 20.4712C23.6904 20.4712 20.4172 20.5485 17.195 20.6966C13.3657 20.8726 10.219 23.849 9.70748 27.6481C9.37365 30.1275 9.09832 32.6683 9.09832 35.2559C9.09832 37.8435 9.37365 40.3844 9.70748 42.8638Z" stroke="#141B34" stroke-width="3.41186"/>
<path d="M17.0593 20.4712V14.7847C17.0593 9.13176 21.642 4.54913 27.2949 4.54913C32.9479 4.54913 37.5305 9.13176 37.5305 14.7847V20.4712" stroke="#141B34" stroke-width="3.41186" stroke-linecap="round" stroke-linejoin="round"/>
</svg>
