<svg width="92" height="41" viewBox="0 0 92 41" fill="none" xmlns="http://www.w3.org/2000/svg">
<path d="M51.0254 0C52.9933 2.16482e-05 54.6744 0.472061 56.0684 1.41504C57.5032 2.35805 58.2207 3.91597 58.2207 6.08887C58.2207 7.68769 57.8111 9.1432 56.9912 10.4551C56.1712 11.726 55.187 12.8334 54.0391 13.7764C52.8911 14.6784 51.2922 15.8472 49.2422 17.2822C48.8166 17.5631 48.4076 17.8368 48.0156 18.1035C48.377 18.6669 48.7654 19.2341 49.1807 19.8037C52.3409 24.0439 56.3413 28.0094 61.1797 31.7031C61.3272 31.433 61.4693 31.1565 61.6035 30.873C62.7514 28.5361 63.3252 26.0555 63.3252 23.4316C63.3252 21.9557 63.0173 20.8483 62.4023 20.1104C61.8283 19.3727 60.6805 19.0039 58.959 19.0039C58.836 19.0039 58.7539 18.8807 58.7129 18.6348C58.7129 18.3888 58.795 18.2656 58.959 18.2656L67.7695 18.2227V6.27344C67.7695 5.04345 67.6259 4.14138 67.3389 3.56738C67.0929 2.99341 66.6217 2.60345 65.9248 2.39844C65.2688 2.15244 64.2231 2.0293 62.7881 2.0293C62.7061 2.02929 62.6651 1.90687 62.665 1.66113C62.665 1.41514 62.7061 1.29199 62.7881 1.29199L65.8633 1.35352C67.6671 1.43551 69.102 1.47656 70.168 1.47656C71.316 1.47656 72.5259 1.41499 73.7969 1.29199C74.2478 1.251 74.7807 1.20993 75.3955 1.16895C76.0514 1.12795 76.7484 1.10743 77.4863 1.10742C81.0123 1.10742 83.6774 1.84532 85.4814 3.32129C87.3264 4.75629 88.249 6.70406 88.249 9.16406C88.2489 11.4599 87.3879 13.4685 85.666 15.1904C84.4359 16.4205 82.891 17.3867 81.0332 18.0938C82.8488 18.255 84.4957 18.6812 85.9736 19.373C87.9005 20.275 89.3764 21.5252 90.4014 23.124C91.4673 24.682 92.001 26.4657 92.001 28.4746C92.001 30.6476 91.4263 32.6159 90.2783 34.3789C89.1713 36.1008 87.6339 37.4741 85.666 38.499C83.7391 39.483 81.5663 39.9755 79.1475 39.9756C77.8355 39.9756 76.3998 39.914 74.8418 39.791C74.5549 39.7705 74.2424 39.75 73.9043 39.7295H68.1836C67.928 39.7295 67.6554 39.7009 67.3652 39.6465L65.8633 39.668C65.0843 39.709 64.0386 39.7295 62.7266 39.7295C62.6036 39.7295 62.542 39.6063 62.542 39.3604C62.542 39.1144 62.6036 38.9912 62.7266 38.9912C63.6888 38.9912 64.4848 38.9428 65.1152 38.8506C63.6124 38.1239 61.8221 36.9466 59.7451 35.3164C56.4633 38.7494 52.3273 40.4668 47.335 40.4668C44.7932 40.4668 42.6614 40.0367 40.9395 39.1758C39.2585 38.3148 37.987 37.187 37.126 35.793C36.9226 35.4471 36.7447 35.0948 36.5918 34.7363V40.5283C36.5918 40.6103 36.4892 40.6719 36.2842 40.7129C36.1204 40.7538 35.998 40.7333 35.916 40.6514L7.07227 6.48047V32.7178C7.07227 34.8498 7.46123 36.4291 8.24023 37.4541C9.06023 38.4791 10.2907 38.9912 11.9307 38.9912C12.0127 38.9912 12.0537 39.1144 12.0537 39.3604C12.0537 39.6063 12.0127 39.7295 11.9307 39.7295C10.8647 39.7295 10.0447 39.709 9.4707 39.668L6.33398 39.6064L3.0127 39.668C2.39778 39.7089 1.49608 39.7295 0.307617 39.7295C0.22563 39.7295 0.184583 39.6063 0.18457 39.3604C0.18457 39.1144 0.225617 38.9912 0.307617 38.9912C2.07025 38.9911 3.3617 38.4789 4.18164 37.4541C5.04264 36.4291 5.47363 34.8498 5.47363 32.7178V4.72949C4.70063 3.96767 3.98255 3.39573 3.32031 3.01367C2.25454 2.35787 1.18882 2.02937 0.123047 2.0293C0.0410898 2.0293 4.29282e-05 1.90687 0 1.66113C0 1.41513 0.0410469 1.29199 0.123047 1.29199L2.52148 1.35352C3.01347 1.3945 3.71051 1.41504 4.6123 1.41504L7.74902 1.35352C8.15893 1.31254 8.63026 1.29199 9.16309 1.29199C9.49109 1.29199 9.73737 1.37409 9.90137 1.53809C10.0654 1.70218 10.3118 2.02975 10.6396 2.52148L12.1152 4.49023L35.0547 32.1338V8.36426C35.0547 6.23226 34.6647 4.6539 33.8857 3.62891C33.1068 2.563 31.8977 2.02933 30.2578 2.0293C30.1759 2.0293 30.1348 1.90687 30.1348 1.66113C30.1348 1.41513 30.1758 1.29199 30.2578 1.29199L32.7178 1.35352C33.9477 1.43551 34.9935 1.47656 35.8545 1.47656C36.5924 1.47655 37.6582 1.43549 39.0518 1.35352L41.6348 1.29199C41.7168 1.29199 41.7578 1.41513 41.7578 1.66113C41.7578 1.90687 41.7167 2.0293 41.6348 2.0293C38.273 2.02946 36.5918 4.14143 36.5918 8.36426V27.6904C36.7602 27.2844 36.9579 26.8895 37.1875 26.5068C38.0485 25.0718 39.1147 23.8004 40.3857 22.6934C41.4318 21.7823 42.7703 20.7336 44.3994 19.5449C43.7135 18.4875 43.1126 17.4468 42.5996 16.4209C41.4106 13.8379 40.8164 11.6233 40.8164 9.77832C40.8165 8.01548 41.2465 6.3958 42.1074 4.91992C42.9684 3.40299 44.1784 2.21449 45.7363 1.35352C47.2943 0.451515 49.0574 0 51.0254 0ZM76.8721 19.5576C75.4476 19.5006 74.0326 19.5341 72.6279 19.6553V34.748C72.628 35.7729 72.7716 36.5725 73.0586 37.1465C73.3456 37.6793 73.8785 38.089 74.6572 38.376C75.4362 38.622 76.6051 38.7451 78.1631 38.7451C81.0739 38.7451 83.2261 37.9866 84.6201 36.4697C86.055 34.9528 86.7734 32.78 86.7734 29.9512C86.7734 26.8352 85.9124 24.3333 84.1904 22.4473C82.4685 20.5614 80.0288 19.5987 76.8721 19.5576ZM44.9209 20.3281C44.6902 20.506 44.4703 20.6797 44.2607 20.8486C43.0307 21.8736 41.985 23.0835 41.124 24.4775C40.2631 25.8715 39.832 27.4294 39.832 29.1514C39.8321 30.8733 40.263 32.4723 41.124 33.9482C42.026 35.3832 43.2556 36.5316 44.8135 37.3926C46.3714 38.2125 48.1346 38.622 50.1025 38.6221C52.6445 38.6221 54.9207 37.9253 56.9297 36.5312C57.6843 35.9922 58.3746 35.3889 59.002 34.7227C58.6473 34.4355 58.2835 34.1371 57.9131 33.8252C54.7151 31.3242 51.7225 28.5154 48.9346 25.3994C47.3884 23.6713 46.051 21.9806 44.9209 20.3281ZM67.7695 19.8457C67.5307 20.0276 67.3408 20.2386 67.2002 20.4795C66.9132 20.9304 66.6258 21.6275 66.3389 22.5703C65.2371 26.4802 63.8154 29.7494 62.0752 32.3779C64.0092 33.815 65.8833 35.0471 67.6973 36.0762C67.744 35.6868 67.7695 35.2442 67.7695 34.748V19.8457ZM76.3184 2.15234C75.3346 2.15234 74.5759 2.25507 74.043 2.45996C73.551 2.66496 73.1815 3.07543 72.9355 3.69043C72.7306 4.26444 72.6279 5.16661 72.6279 6.39648V18.0732C73.5963 18.1175 74.4982 18.1426 75.334 18.1426C78.04 18.1426 80.0699 17.3637 81.4229 15.8057C82.7757 14.2477 83.4521 12.1972 83.4521 9.65527C83.4521 7.31873 82.8576 5.4945 81.6689 4.18262C80.521 2.82967 78.7372 2.15239 76.3184 2.15234ZM49.2422 1.29199C46.0033 1.29199 44.3829 3.2596 44.3828 7.19531C44.3828 10.4371 45.4242 13.7993 47.5059 17.2812C48.5999 16.4593 49.5276 15.7221 50.2871 15.0674C51.517 14.0014 52.5423 12.8129 53.3623 11.501C54.1823 10.148 54.5918 8.67127 54.5918 7.07227C54.5917 5.26849 54.1001 3.85401 53.1162 2.8291C52.1733 1.80426 50.8819 1.29208 49.2422 1.29199Z" fill="#1E1E1E"/>
</svg>
