<svg width="55" height="55" viewBox="0 0 55 55" fill="none" xmlns="http://www.w3.org/2000/svg">
<path d="M27.2908 4.54913C20.4494 4.54913 16.0134 9.14148 10.7672 10.8154C8.63402 11.496 7.56744 11.8363 7.13579 12.316C6.70415 12.7957 6.57775 13.4967 6.32496 14.8988C3.61983 29.9015 9.53251 43.7718 23.6335 49.1706C25.1486 49.7506 25.9061 50.0407 27.2983 50.0406C28.6904 50.0406 29.4479 49.7506 30.9629 49.1705C45.063 43.7718 50.9701 29.9015 48.2641 14.8987C48.0112 13.4965 47.8848 12.7954 47.453 12.3156C47.0213 11.8359 45.9548 11.4958 43.8218 10.8156C38.5735 9.14183 34.1325 4.54913 27.2908 4.54913Z" stroke="#141B34" stroke-width="3.41186" stroke-linecap="round" stroke-linejoin="round"/>
<path d="M20.4712 29.5695C20.4712 29.5695 22.7457 29.5695 25.0203 34.1186C25.0203 34.1186 32.2454 22.7458 38.6678 20.4712" stroke="#141B34" stroke-width="3.41186" stroke-linecap="round" stroke-linejoin="round"/>
</svg>
