<svg width="292" height="55" viewBox="0 0 292 55" fill="none" xmlns="http://www.w3.org/2000/svg">
<path d="M26.2133 3.32889C26.5537 2.2811 28.0361 2.2811 28.3765 3.3289L33.1676 18.0745C33.3199 18.5431 33.7566 18.8603 34.2493 18.8603H49.7537C50.8554 18.8603 51.3135 20.2701 50.4222 20.9177L37.8788 30.0309C37.4802 30.3205 37.3134 30.8339 37.4657 31.3025L42.2568 46.048C42.5973 47.0958 41.398 47.9671 40.5067 47.3196L27.9634 38.2063C27.5648 37.9167 27.025 37.9167 26.6264 38.2063L14.0831 47.3196C13.1918 47.9671 11.9925 47.0958 12.333 46.048L17.1241 31.3025C17.2764 30.8339 17.1096 30.3205 16.711 30.0309L4.16763 20.9177C3.27633 20.2701 3.7344 18.8603 4.83612 18.8603H20.3405C20.8332 18.8603 21.2699 18.5431 21.4221 18.0745L26.2133 3.32889Z" fill="#111111"/>
<path d="M85.3522 3.32889C85.6927 2.2811 87.175 2.2811 87.5155 3.3289L92.3066 18.0745C92.4588 18.5431 92.8955 18.8603 93.3882 18.8603H108.893C109.994 18.8603 110.452 20.2701 109.561 20.9177L97.0178 30.0309C96.6192 30.3205 96.4524 30.8339 96.6046 31.3025L101.396 46.048C101.736 47.0958 100.537 47.9671 99.6457 47.3196L87.1023 38.2063C86.7037 37.9167 86.164 37.9167 85.7654 38.2063L73.222 47.3196C72.3307 47.9671 71.1315 47.0958 71.4719 46.048L76.2631 31.3025C76.4153 30.8339 76.2485 30.3205 75.8499 30.0309L63.3066 20.9177C62.4153 20.2701 62.8733 18.8603 63.9751 18.8603H79.4795C79.9722 18.8603 80.4088 18.5431 80.5611 18.0745L85.3522 3.32889Z" fill="#111111"/>
<path d="M144.491 3.32889C144.832 2.2811 146.314 2.2811 146.654 3.3289L151.446 18.0745C151.598 18.5431 152.034 18.8603 152.527 18.8603H168.032C169.133 18.8603 169.591 20.2701 168.7 20.9177L156.157 30.0309C155.758 30.3205 155.591 30.8339 155.744 31.3025L160.535 46.048C160.875 47.0958 159.676 47.9671 158.785 47.3196L146.241 38.2063C145.843 37.9167 145.303 37.9167 144.904 38.2063L132.361 47.3196C131.47 47.9671 130.27 47.0958 130.611 46.048L135.402 31.3025C135.554 30.8339 135.387 30.3205 134.989 30.0309L122.446 20.9177C121.554 20.2701 122.012 18.8603 123.114 18.8603H138.618C139.111 18.8603 139.548 18.5431 139.7 18.0745L144.491 3.32889Z" fill="#111111"/>
<path d="M203.63 3.32889C203.971 2.2811 205.453 2.2811 205.793 3.3289L210.585 18.0745C210.737 18.5431 211.173 18.8603 211.666 18.8603H227.171C228.272 18.8603 228.73 20.2701 227.839 20.9177L215.296 30.0309C214.897 30.3205 214.73 30.8339 214.883 31.3025L219.674 46.048C220.014 47.0958 218.815 47.9671 217.924 47.3196L205.38 38.2063C204.982 37.9167 204.442 37.9167 204.043 38.2063L191.5 47.3196C190.609 47.9671 189.409 47.0958 189.75 46.048L194.541 31.3025C194.693 30.8339 194.526 30.3205 194.128 30.0309L181.584 20.9177C180.693 20.2701 181.151 18.8603 182.253 18.8603H197.757C198.25 18.8603 198.687 18.5431 198.839 18.0745L203.63 3.32889Z" fill="#111111"/>
<path d="M262.769 3.32889C263.11 2.2811 264.592 2.2811 264.932 3.3289L269.723 18.0745C269.876 18.5431 270.312 18.8603 270.805 18.8603H286.31C287.411 18.8603 287.869 20.2701 286.978 20.9177L274.435 30.0309C274.036 30.3205 273.869 30.8339 274.022 31.3025L278.813 46.048C279.153 47.0958 277.954 47.9671 277.063 47.3196L264.519 38.2063C264.121 37.9167 263.581 37.9167 263.182 38.2063L250.639 47.3196C249.748 47.9671 248.548 47.0958 248.889 46.048L253.68 31.3025C253.832 30.8339 253.665 30.3205 253.267 30.0309L240.723 20.9177C239.832 20.2701 240.29 18.8603 241.392 18.8603H256.896C257.389 18.8603 257.826 18.5431 257.978 18.0745L262.769 3.32889Z" fill="#111111"/>
</svg>
