<svg width="55" height="55" viewBox="0 0 55 55" fill="none" xmlns="http://www.w3.org/2000/svg">
<path d="M44.3542 39.8051C44.3542 42.9456 41.8083 45.4915 38.6678 45.4915C35.5272 45.4915 32.9813 42.9456 32.9813 39.8051C32.9813 36.6646 35.5272 34.1187 38.6678 34.1187C41.8083 34.1187 44.3542 36.6646 44.3542 39.8051Z" stroke="#141B34" stroke-width="3.41186"/>
<path d="M21.6085 39.8051C21.6085 42.9456 19.0626 45.4915 15.922 45.4915C12.7815 45.4915 10.2356 42.9456 10.2356 39.8051C10.2356 36.6646 12.7815 34.1187 15.922 34.1187C19.0626 34.1187 21.6085 36.6646 21.6085 39.8051Z" stroke="#141B34" stroke-width="3.41186"/>
<path d="M32.9813 39.8051H21.6085M44.3542 39.8051H46.0901C46.5904 39.8051 46.8406 39.8051 47.0508 39.7789C48.6005 39.5857 49.8213 38.365 50.0144 36.8153C50.0406 36.6051 50.0406 36.3549 50.0406 35.8545V29.5695C50.0406 21.4041 43.4213 14.7848 35.2559 14.7848M4.54915 9.09833H27.2949C30.5116 9.09833 32.12 9.09833 33.1193 10.0976C34.1186 11.097 34.1186 12.7053 34.1186 15.9221V35.2559M4.54915 29.0009V34.1187C4.54915 36.2445 4.54915 37.3074 5.00625 38.0992C5.3057 38.6178 5.73641 39.0485 6.25508 39.348C7.04681 39.8051 8.10973 39.8051 10.2356 39.8051" stroke="#141B34" stroke-width="3.41186" stroke-linecap="round" stroke-linejoin="round"/>
<path d="M4.54915 15.922H18.1966M4.54915 22.7457H13.6474" stroke="#141B34" stroke-width="3.41186" stroke-linecap="round" stroke-linejoin="round"/>
</svg>
