<svg height="1000" width="1000" xmlns:xlink="http://www.w3.org/1999/xlink" version="1.1" xmlns="http://www.w3.org/2000/svg"><g clip-path="url(#SvgjsClipPath1062)"><rect fill="#ffffff" height="1000" width="1000"></rect><g transform="matrix(9.782608695652174,0,0,9.782608695652174,50,294.5652173913044)"><svg height="42" width="92" xmlns:xlink="http://www.w3.org/1999/xlink" version="1.1" xmlns="http://www.w3.org/2000/svg"><svg xmlns="http://www.w3.org/2000/svg" fill="none" viewBox="0 0 92 42" height="42" width="92">
<path fill="#1E1E1E" d="M51.0254 0.359619C52.9933 0.359641 54.6744 0.83168 56.0684 1.77466C57.5032 2.71767 58.2207 4.27559 58.2207 6.44849C58.2207 8.04731 57.8111 9.50282 56.9912 10.8147C56.1712 12.0857 55.187 13.193 54.0391 14.136C52.8911 15.038 51.2922 16.2069 49.2422 17.6418C48.8166 17.9227 48.4076 18.1964 48.0156 18.4631C48.377 19.0266 48.7654 19.5937 49.1807 20.1633C52.3409 24.4035 56.3413 28.369 61.1797 32.0627C61.3272 31.7926 61.4693 31.5161 61.6035 31.2327C62.7514 28.8957 63.3252 26.4152 63.3252 23.7913C63.3252 22.3153 63.0173 21.208 62.4023 20.47C61.8283 19.7323 60.6805 19.3636 58.959 19.3635C58.836 19.3635 58.7539 19.2404 58.7129 18.9944C58.7129 18.7484 58.795 18.6252 58.959 18.6252L67.7695 18.5823V6.63306C67.7695 5.40307 67.6259 4.501 67.3389 3.927C67.0929 3.35303 66.6217 2.96307 65.9248 2.75806C65.2688 2.51206 64.2231 2.38892 62.7881 2.38892C62.7061 2.38891 62.6651 2.26649 62.665 2.02075C62.665 1.77476 62.7061 1.65161 62.7881 1.65161L65.8633 1.71313C67.6671 1.79512 69.102 1.83618 70.168 1.83618C71.316 1.83618 72.5259 1.77461 73.7969 1.65161C74.2478 1.61062 74.7807 1.56955 75.3955 1.52856C76.0514 1.48757 76.7484 1.46705 77.4863 1.46704C81.0123 1.46704 83.6774 2.20494 85.4814 3.68091C87.3264 5.11591 88.249 7.06368 88.249 9.52368C88.2489 11.8195 87.3879 13.8282 85.666 15.55C84.4359 16.7802 82.891 17.7463 81.0332 18.4534C82.8488 18.6146 84.4957 19.0409 85.9736 19.7327C87.9005 20.6346 89.3764 21.8848 90.4014 23.4836C91.4673 25.0416 92.001 26.8253 92.001 28.8342C92.001 31.0072 91.4263 32.9755 90.2783 34.7385C89.1713 36.4604 87.6339 37.8337 85.666 38.8586C83.7391 39.8426 81.5663 40.3352 79.1475 40.3352C77.8355 40.3352 76.3998 40.2736 74.8418 40.1506C74.5549 40.1301 74.2424 40.1096 73.9043 40.0891H68.1836C67.928 40.0891 67.6554 40.0606 67.3652 40.0061L65.8633 40.0276C65.0843 40.0686 64.0386 40.0891 62.7266 40.0891C62.6036 40.0891 62.542 39.9659 62.542 39.72C62.542 39.474 62.6036 39.3508 62.7266 39.3508C63.6888 39.3508 64.4848 39.3024 65.1152 39.2102C63.6124 38.4835 61.8221 37.3062 59.7451 35.676C56.4633 39.109 52.3273 40.8264 47.335 40.8264C44.7932 40.8264 42.6614 40.3963 40.9395 39.5354C39.2585 38.6744 37.987 37.5466 37.126 36.1526C36.9226 35.8067 36.7447 35.4544 36.5918 35.0959V40.8879C36.5918 40.9699 36.4892 41.0315 36.2842 41.0725C36.1204 41.1134 35.998 41.0929 35.916 41.011L7.07227 6.84009V33.0774C7.07227 35.2094 7.46123 36.7887 8.24023 37.8137C9.06023 38.8387 10.2907 39.3508 11.9307 39.3508C12.0127 39.3508 12.0537 39.474 12.0537 39.72C12.0537 39.9659 12.0127 40.0891 11.9307 40.0891C10.8647 40.0891 10.0447 40.0686 9.4707 40.0276L6.33398 39.9661L3.0127 40.0276C2.39778 40.0686 1.49608 40.0891 0.307617 40.0891C0.22563 40.0891 0.184583 39.9659 0.18457 39.72C0.18457 39.474 0.225617 39.3508 0.307617 39.3508C2.07025 39.3507 3.3617 38.8385 4.18164 37.8137C5.04264 36.7887 5.47363 35.2094 5.47363 33.0774V5.08911C4.70063 4.32728 3.98255 3.75535 3.32031 3.37329C2.25454 2.71749 1.18882 2.38899 0.123047 2.38892C0.0410898 2.38892 4.29282e-05 2.26649 0 2.02075C0 1.77475 0.0410469 1.65161 0.123047 1.65161L2.52148 1.71313C3.01347 1.75412 3.71051 1.77466 4.6123 1.77466L7.74902 1.71313C8.15893 1.67216 8.63026 1.65161 9.16309 1.65161C9.49109 1.65161 9.73737 1.73371 9.90137 1.89771C10.0654 2.06179 10.3118 2.38937 10.6396 2.8811L12.1152 4.84985L35.0547 32.4934V8.72388C35.0547 6.59188 34.6647 5.01352 33.8857 3.98853C33.1068 2.92262 31.8977 2.38895 30.2578 2.38892C30.1759 2.38892 30.1348 2.26649 30.1348 2.02075C30.1348 1.77475 30.1758 1.65161 30.2578 1.65161L32.7178 1.71313C33.9477 1.79513 34.9935 1.83618 35.8545 1.83618C36.5924 1.83617 37.6582 1.79511 39.0518 1.71313L41.6348 1.65161C41.7168 1.65161 41.7578 1.77475 41.7578 2.02075C41.7578 2.26649 41.7167 2.38892 41.6348 2.38892C38.273 2.38908 36.5918 4.50105 36.5918 8.72388V28.05C36.7602 27.644 36.9579 27.2491 37.1875 26.8665C38.0485 25.4315 39.1147 24.16 40.3857 23.053C41.4318 22.1419 42.7703 21.0933 44.3994 19.9045C43.7135 18.8472 43.1126 17.8065 42.5996 16.7805C41.4106 14.1975 40.8164 11.9829 40.8164 10.1379C40.8165 8.3751 41.2465 6.75542 42.1074 5.27954C42.9684 3.76261 44.1784 2.57411 45.7363 1.71313C47.2943 0.811134 49.0574 0.359619 51.0254 0.359619ZM76.8721 19.9172C75.4476 19.8603 74.0326 19.8937 72.6279 20.0149V35.1077C72.628 36.1325 72.7716 36.9322 73.0586 37.5061C73.3456 38.0389 73.8785 38.4486 74.6572 38.7356C75.4362 38.9816 76.6051 39.1047 78.1631 39.1047C81.0739 39.1047 83.2261 38.3462 84.6201 36.8293C86.055 35.3124 86.7734 33.1396 86.7734 30.3108C86.7734 27.1948 85.9124 24.6929 84.1904 22.8069C82.4685 20.921 80.0288 19.9583 76.8721 19.9172ZM44.9209 20.6877C44.6902 20.8656 44.4703 21.0393 44.2607 21.2083C43.0307 22.2333 41.985 23.4432 41.124 24.8372C40.2631 26.2311 39.832 27.789 39.832 29.511C39.8321 31.2329 40.263 32.8319 41.124 34.3079C42.026 35.7428 43.2556 36.8912 44.8135 37.7522C46.3714 38.5722 48.1346 38.9817 50.1025 38.9817C52.6445 38.9817 54.9207 38.2849 56.9297 36.8909C57.6843 36.3518 58.3746 35.7486 59.002 35.0823C58.6473 34.7951 58.2835 34.4967 57.9131 34.1848C54.7151 31.6838 51.7225 28.875 48.9346 25.759C47.3884 24.0309 46.051 22.3402 44.9209 20.6877ZM67.7695 20.2053C67.5307 20.3872 67.3408 20.5982 67.2002 20.8391C66.9132 21.29 66.6258 21.9871 66.3389 22.9299C65.2371 26.8398 63.8154 30.109 62.0752 32.7375C64.0092 34.1746 65.8833 35.4068 67.6973 36.4358C67.744 36.0464 67.7695 35.6038 67.7695 35.1077V20.2053ZM76.3184 2.51196C75.3346 2.51196 74.5759 2.61469 74.043 2.81958C73.551 3.02458 73.1815 3.43505 72.9355 4.05005C72.7306 4.62406 72.6279 5.52623 72.6279 6.7561V18.4329C73.5963 18.4771 74.4982 18.5022 75.334 18.5022C78.04 18.5022 80.0699 17.7233 81.4229 16.1653C82.7757 14.6073 83.4521 12.5568 83.4521 10.0149C83.4521 7.67835 82.8576 5.85412 81.6689 4.54224C80.521 3.18929 78.7372 2.51201 76.3184 2.51196ZM49.2422 1.65161C46.0033 1.65161 44.3829 3.61922 44.3828 7.55493C44.3828 10.7967 45.4242 14.1589 47.5059 17.6409C48.5999 16.8189 49.5276 16.0817 50.2871 15.427C51.517 14.3611 52.5423 13.1725 53.3623 11.8606C54.1823 10.5076 54.5918 9.03088 54.5918 7.43188C54.5917 5.62811 54.1001 4.21363 53.1162 3.18872C52.1733 2.16388 50.8819 1.6517 49.2422 1.65161Z"></path>
</svg></svg></g></g><defs><clipPath id="SvgjsClipPath1062"><rect ry="500" rx="500" y="0" x="0" height="1000" width="1000"></rect></clipPath></defs></svg>
