<svg xmlns="http://www.w3.org/2000/svg" fill="none" viewBox="0 0 344 93" height="93" width="344">
<path fill="black" d="M5.80928 8.4721L7.47328 8.6001V39.7041C7.47328 41.9228 7.87858 43.5654 8.68928 44.6321C9.54258 45.6988 10.8226 46.2321 12.5293 46.2321C12.6146 46.2321 12.6573 46.3601 12.6573 46.6161C12.6573 46.8721 12.6146 47.0001 12.5293 47.0001C11.42 47.0001 10.5666 46.9788 9.96928 46.9361L6.70528 46.8721L3.24928 46.9361C2.60928 46.9788 1.67058 47.0001 0.433281 47.0001C0.347981 47.0001 0.305283 46.8721 0.305283 46.6161C0.305283 46.3601 0.347981 46.2321 0.433281 46.2321C2.26798 46.2321 3.61198 45.6988 4.46528 44.6321C5.36128 43.5654 5.80928 41.9228 5.80928 39.7041V8.4721ZM38.1933 47.8321C38.1933 47.9174 38.0866 47.9814 37.8733 48.0241C37.7026 48.0668 37.5746 48.0454 37.4893 47.9601L7.34528 12.2481C5.93728 10.5841 4.67858 9.4321 3.56928 8.7921C2.45998 8.1094 1.35058 7.7681 0.241283 7.7681C0.155983 7.7681 0.113281 7.6401 0.113281 7.3841C0.113281 7.1281 0.155983 7.0001 0.241283 7.0001L2.73728 7.0641C3.24928 7.1068 3.97458 7.1281 4.91328 7.1281L8.17728 7.0641C8.60398 7.0214 9.09458 7.0001 9.64928 7.0001C9.99058 7.0001 10.2466 7.0854 10.4173 7.2561C10.588 7.4268 10.844 7.7681 11.1853 8.2801L12.7213 10.3281L37.6813 40.4081L38.1933 47.8321ZM38.1933 47.8321L36.5933 45.8481V14.3601C36.5933 12.1414 36.188 10.4988 35.3773 9.4321C34.5666 8.3228 33.308 7.7681 31.6013 7.7681C31.516 7.7681 31.4733 7.6401 31.4733 7.3841C31.4733 7.1281 31.516 7.0001 31.6013 7.0001L34.1613 7.0641C35.4413 7.1494 36.5293 7.1921 37.4253 7.1921C38.1933 7.1921 39.3026 7.1494 40.7533 7.0641L43.4413 7.0001C43.5266 7.0001 43.5693 7.1281 43.5693 7.3841C43.5693 7.6401 43.5266 7.7681 43.4413 7.7681C39.9426 7.7681 38.1933 9.9654 38.1933 14.3601V47.8321ZM60.9433 47.8321C58.426 47.8321 56.2073 47.2348 54.2873 46.0401C52.3673 44.8028 50.874 43.1601 49.8073 41.1121C48.7833 39.0214 48.2713 36.7601 48.2713 34.3281C48.2713 31.5548 48.954 29.2081 50.3193 27.2881C51.6846 25.3254 53.434 23.8748 55.5673 22.9361C57.7006 21.9548 59.8766 21.4641 62.0953 21.4641C64.6123 21.4641 66.8313 22.0828 68.7513 23.3201C70.6713 24.5574 72.1433 26.2001 73.1673 28.2481C74.1913 30.2534 74.7033 32.3868 74.7033 34.6481C74.7033 37.2508 74.0633 39.5548 72.7833 41.5601C71.5463 43.5654 69.8823 45.1228 67.7913 46.2321C65.7003 47.2988 63.4183 47.8321 60.9433 47.8321ZM62.7993 46.6161C64.9323 46.6161 66.5753 45.7841 67.7273 44.1201C68.8793 42.4561 69.4553 39.9388 69.4553 36.5681C69.4553 33.7948 69.0283 31.3628 68.1753 29.2721C67.3643 27.1814 66.2343 25.5814 64.7833 24.4721C63.3323 23.3201 61.7113 22.7441 59.9193 22.7441C57.8286 22.7441 56.2073 23.5548 55.0553 25.1761C53.946 26.7548 53.3913 29.1014 53.3913 32.2161C53.3913 34.9041 53.7966 37.3574 54.6073 39.5761C55.418 41.7521 56.5273 43.4801 57.9353 44.7601C59.386 45.9974 61.0073 46.6161 62.7993 46.6161ZM81.3223 47.0001C81.1943 47.0001 81.1303 46.8721 81.1303 46.6161C81.1303 46.3601 81.1943 46.2321 81.3223 46.2321C82.9013 46.2321 83.9253 45.9548 84.3943 45.4001C84.9063 44.8028 85.1623 43.6081 85.1623 41.8161V29.9761C85.1623 28.4828 85.0133 27.4161 84.7143 26.7761C84.4153 26.0934 83.8823 25.7521 83.1143 25.7521C82.4313 25.7521 81.5143 26.0294 80.3623 26.5841H80.2983C80.1273 26.5841 79.9993 26.4774 79.9143 26.2641C79.8293 26.0081 79.8713 25.8588 80.0423 25.8161L88.7463 21.7841L89.0023 21.7201C89.1303 21.7201 89.2583 21.7841 89.3863 21.9121C89.5573 22.0401 89.6423 22.1894 89.6423 22.3601C89.6423 22.6588 89.6213 23.5121 89.5783 24.9201C89.5353 26.3281 89.5143 27.9921 89.5143 29.9121V41.8161C89.5143 43.6081 89.7493 44.8028 90.2183 45.4001C90.7303 45.9548 91.7753 46.2321 93.3543 46.2321C93.4823 46.2321 93.5463 46.3601 93.5463 46.6161C93.5463 46.8721 93.4823 47.0001 93.3543 47.0001C92.3303 47.0001 91.4983 46.9788 90.8583 46.9361L87.3383 46.8721L83.8183 46.9361C83.1783 46.9788 82.3463 47.0001 81.3223 47.0001ZM86.9543 14.5521C85.9733 14.5521 85.1833 14.2961 84.5863 13.7841C84.0313 13.2294 83.7543 12.4614 83.7543 11.4801C83.7543 10.5414 84.0313 9.8161 84.5863 9.3041C85.1833 8.7921 85.9733 8.5361 86.9543 8.5361C87.8933 8.5361 88.6183 8.7921 89.1303 9.3041C89.6853 9.8161 89.9623 10.5414 89.9623 11.4801C89.9623 12.4614 89.7063 13.2294 89.1943 13.7841C88.6823 14.2961 87.9353 14.5521 86.9543 14.5521ZM105.868 28.9521C108.172 26.1788 109.964 24.2801 111.244 23.2561C112.567 22.2321 113.761 21.7201 114.828 21.7201C115.809 21.7201 116.727 22.0188 117.58 22.6161C118.433 23.1708 118.86 23.8534 118.86 24.6641C118.86 25.3041 118.647 25.8588 118.22 26.3281C117.793 26.7548 117.217 26.9681 116.492 26.9681C116.023 26.9681 115.639 26.8828 115.34 26.7121C115.041 26.4988 114.657 26.2001 114.188 25.8161C113.761 25.4321 113.399 25.1548 113.1 24.9841C112.844 24.8134 112.481 24.7281 112.012 24.7281C111.415 24.7281 110.732 25.0481 109.964 25.6881C109.239 26.2854 108.001 27.6081 106.252 29.6561L105.868 28.9521ZM99.4683 47.0001C99.3403 47.0001 99.2763 46.8721 99.2763 46.6161C99.2763 46.3601 99.3403 46.2321 99.4683 46.2321C100.535 46.2321 101.324 46.1254 101.836 45.9121C102.391 45.6561 102.753 45.2294 102.924 44.6321C103.137 43.9921 103.244 43.0534 103.244 41.8161V29.3361C103.244 27.9281 103.073 26.9254 102.732 26.3281C102.433 25.6881 101.9 25.3681 101.132 25.3681C100.407 25.3681 99.2763 25.6668 97.7403 26.2641H97.6123C97.4843 26.2641 97.3773 26.1574 97.2923 25.9441C97.2493 25.7308 97.2923 25.6028 97.4203 25.5601L105.292 21.7841L105.676 21.7201C106.103 21.7201 106.529 22.2321 106.956 23.2561C107.425 24.2374 107.66 25.5388 107.66 27.1601V41.8161C107.66 43.0534 107.809 43.9921 108.108 44.6321C108.449 45.2294 109.047 45.6561 109.9 45.9121C110.753 46.1254 112.033 46.2321 113.74 46.2321C113.868 46.2321 113.932 46.3601 113.932 46.6161C113.932 46.8721 113.868 47.0001 113.74 47.0001C112.332 47.0001 111.201 46.9788 110.348 46.9361L105.484 46.8721L101.9 46.9361C101.303 46.9788 100.492 47.0001 99.4683 47.0001ZM161.261 13.1441C161.261 11.2668 160.77 9.7948 159.789 8.7281C158.808 7.6614 157.528 7.1281 155.949 7.1281C152.92 7.1281 151.405 9.0054 151.405 12.7601C151.405 17.0268 153.112 21.4641 156.525 26.0721C159.981 30.6801 164.333 34.9681 169.581 38.9361C172.312 40.9841 174.85 42.6268 177.197 43.8641C179.586 45.1014 181.549 45.8908 183.085 46.2321C183.256 46.2748 183.32 46.4241 183.277 46.6801C183.277 46.8934 183.213 47.0001 183.085 47.0001H175.021C173.016 47.0001 169.517 44.9521 164.525 40.8561C161.282 38.2961 158.21 35.4374 155.309 32.2801C152.45 29.1228 150.296 26.1148 148.845 23.2561C147.608 20.6961 146.989 18.3921 146.989 16.3441C146.989 14.3814 147.437 12.5894 148.333 10.9681C149.272 9.3468 150.573 8.0668 152.237 7.1281C153.944 6.1468 155.906 5.6561 158.125 5.6561C160.344 5.6561 162.2 6.1681 163.693 7.1921C165.229 8.2161 165.997 9.8161 165.997 11.9921C165.997 13.6561 165.57 15.1708 164.717 16.5361C163.864 17.8588 162.797 19.0321 161.517 20.0561C160.28 21.0374 158.616 22.2108 156.525 23.5761C154.349 25.0268 152.621 26.2854 151.341 27.3521C150.104 28.3761 149.037 29.5921 148.141 31.0001C147.288 32.3654 146.861 33.9228 146.861 35.6721C146.861 37.4214 147.33 39.0428 148.269 40.5361C149.208 42.0294 150.509 43.2241 152.173 44.1201C153.837 45.0161 155.757 45.4641 157.933 45.4641C160.45 45.4641 162.648 44.8241 164.525 43.5441C166.445 42.2214 167.917 40.4508 168.941 38.2321C170.008 35.9708 170.541 33.4961 170.541 30.8081C170.541 28.9734 170.2 27.6294 169.517 26.7761C168.877 25.8801 167.64 25.4321 165.805 25.4321C165.677 25.4321 165.592 25.3041 165.549 25.0481C165.549 24.7921 165.634 24.6641 165.805 24.6641L179.757 24.6001C179.885 24.6001 179.949 24.7281 179.949 24.9841C179.949 25.2401 179.885 25.3681 179.757 25.3681C178.349 25.3681 177.304 25.5174 176.621 25.8161C175.938 26.0721 175.448 26.4561 175.149 26.9681C174.85 27.4801 174.53 28.3121 174.189 29.4641C172.738 34.4988 170.562 38.8081 167.661 42.3921C164.76 45.9761 160.344 47.7681 154.413 47.7681C151.682 47.7681 149.378 47.3414 147.501 46.4881C145.666 45.5921 144.28 44.4401 143.341 43.0321C142.445 41.5814 141.997 40.0241 141.997 38.3601C141.997 36.6534 142.424 35.0961 143.277 33.6881C144.173 32.2374 145.261 30.9574 146.541 29.8481C147.821 28.6961 149.506 27.3734 151.597 25.8801C153.73 24.3014 155.437 22.9574 156.717 21.8481C157.997 20.7388 159.064 19.4588 159.917 18.0081C160.813 16.5148 161.261 14.8934 161.261 13.1441ZM220.493 24.4081C223.096 24.4081 225.4 24.8774 227.405 25.8161C229.41 26.7548 230.946 28.0561 232.013 29.7201C233.122 31.3414 233.677 33.1974 233.677 35.2881C233.677 37.5494 233.08 39.5974 231.885 41.4321C230.733 43.2241 229.133 44.6534 227.085 45.7201C225.08 46.7441 222.818 47.2561 220.301 47.2561C218.936 47.2561 217.442 47.1921 215.821 47.0641C215.224 47.0214 214.52 46.9788 213.709 46.9361C212.898 46.8934 211.981 46.8721 210.957 46.8721L206.477 46.9361C205.666 46.9788 204.578 47.0001 203.213 47.0001C203.085 47.0001 203.021 46.8721 203.021 46.6161C203.021 46.3601 203.085 46.2321 203.213 46.2321C204.706 46.2321 205.816 46.1254 206.541 45.9121C207.266 45.6561 207.757 45.2294 208.013 44.6321C208.312 44.0348 208.461 43.0961 208.461 41.8161V12.1841C208.461 10.9041 208.312 9.9654 208.013 9.3681C207.757 8.7708 207.266 8.3654 206.541 8.1521C205.858 7.8961 204.77 7.7681 203.277 7.7681C203.192 7.7681 203.149 7.6401 203.149 7.3841C203.149 7.1281 203.192 7.0001 203.277 7.0001L206.477 7.0641C208.354 7.1494 209.848 7.1921 210.957 7.1921C212.152 7.1921 213.41 7.1281 214.733 7.0001C215.202 6.9574 215.757 6.9148 216.397 6.8721C217.08 6.8294 217.805 6.8081 218.573 6.8081C222.242 6.8081 225.016 7.5761 226.893 9.1121C228.813 10.6054 229.773 12.6321 229.773 15.1921C229.773 17.5814 228.877 19.6721 227.085 21.4641C225.293 23.2561 222.861 24.5148 219.789 25.2401L220.493 24.4081ZM217.357 7.8961C216.333 7.8961 215.544 8.0028 214.989 8.2161C214.477 8.4294 214.093 8.8561 213.837 9.4961C213.624 10.0934 213.517 11.0321 213.517 12.3121V24.8561L211.405 24.3441C213.24 24.4721 214.882 24.5361 216.333 24.5361C219.149 24.5361 221.261 23.7254 222.669 22.1041C224.077 20.4828 224.781 18.3494 224.781 15.7041C224.781 13.2721 224.162 11.3734 222.925 10.0081C221.73 8.6001 219.874 7.8961 217.357 7.8961ZM219.277 45.9761C222.306 45.9761 224.546 45.1868 225.997 43.6081C227.49 42.0294 228.237 39.7681 228.237 36.8241C228.237 33.5814 227.341 30.9788 225.549 29.0161C223.757 27.0534 221.218 26.0508 217.933 26.0081C215.8 25.9228 213.688 26.0294 211.597 26.3281L213.517 25.6241V41.8161C213.517 42.8828 213.666 43.7148 213.965 44.3121C214.264 44.8668 214.818 45.2934 215.629 45.5921C216.44 45.8481 217.656 45.9761 219.277 45.9761ZM240.673 47.0001C240.588 47.0001 240.545 46.8721 240.545 46.6161C240.545 46.3601 240.588 46.2321 240.673 46.2321C242.252 46.2321 243.276 45.9548 243.745 45.4001C244.257 44.8028 244.513 43.6081 244.513 41.8161L244.577 8.9201C244.577 7.3841 244.428 6.2961 244.129 5.6561C243.83 4.9734 243.318 4.6321 242.593 4.6321C241.868 4.6321 240.95 4.9094 239.841 5.4641H239.777C239.606 5.4641 239.457 5.3574 239.329 5.1441C239.244 4.8881 239.286 4.7388 239.457 4.6961L248.033 0.664101L248.289 0.600098C248.417 0.600098 248.566 0.664099 248.737 0.792099C248.95 0.920099 249.057 1.0694 249.057 1.2401V41.8161C249.057 43.6081 249.292 44.8028 249.761 45.4001C250.273 45.9548 251.297 46.2321 252.833 46.2321C253.004 46.2321 253.089 46.3601 253.089 46.6161C253.089 46.8721 253.004 47.0001 252.833 47.0001C251.852 47.0001 251.062 46.9788 250.465 46.9361L246.753 46.8721L243.169 46.9361C242.572 46.9788 241.74 47.0001 240.673 47.0001ZM276.432 47.3841C276.262 47.4694 276.07 47.5121 275.856 47.5121C275.174 47.5121 274.555 47.0214 274 46.0401C273.446 45.0161 273.168 43.6508 273.168 41.9441V30.2321C273.168 27.6721 272.848 25.8161 272.208 24.6641C271.611 23.4694 270.694 22.8721 269.456 22.8721C268.006 22.8721 266.939 23.3628 266.256 24.3441C265.574 25.3254 265.126 26.4561 264.912 27.7361C264.699 29.6988 263.782 30.6801 262.16 30.6801C261.35 30.6801 260.731 30.4881 260.304 30.1041C259.92 29.7201 259.728 29.2294 259.728 28.6321C259.728 27.5228 260.411 26.4348 261.776 25.3681C263.142 24.2588 264.784 23.3628 266.704 22.6801C268.667 21.9974 270.395 21.6561 271.888 21.6561C273.68 21.6561 275.067 22.2321 276.048 23.3841C277.03 24.5361 277.52 26.1788 277.52 28.3121V40.0881C277.52 42.8614 278.331 44.2481 279.952 44.2481C280.763 44.2481 281.702 44.0134 282.768 43.5441H282.832C283.003 43.5441 283.11 43.6508 283.152 43.8641C283.238 44.0348 283.195 44.1628 283.024 44.2481L276.432 47.3841ZM264.656 47.4481C262.992 47.4481 261.712 47.0428 260.816 46.2321C259.92 45.3788 259.472 44.2908 259.472 42.9681C259.472 41.5174 260.027 40.3654 261.136 39.5121C262.246 38.6588 264.038 37.7628 266.512 36.8241L273.808 34.1361L274 34.9681L268.176 37.3361C267.067 37.7628 266.192 38.2961 265.552 38.9361C264.912 39.5334 264.592 40.3014 264.592 41.2401C264.592 42.2641 264.912 43.1174 265.552 43.8001C266.235 44.4401 267.088 44.7601 268.112 44.7601C268.923 44.7601 269.84 44.4614 270.864 43.8641L274.64 41.4961L274.768 42.3921L270.096 45.4641C269.115 46.1894 268.198 46.7014 267.344 47.0001C266.491 47.2988 265.595 47.4481 264.656 47.4481ZM304.331 47.0001C304.203 47.0001 304.139 46.8721 304.139 46.6161C304.139 46.3601 304.203 46.2321 304.331 46.2321C305.398 46.2321 306.187 46.1254 306.699 45.9121C307.254 45.6561 307.617 45.2294 307.787 44.6321C308.001 43.9921 308.107 43.0534 308.107 41.8161V31.7681C308.107 29.2934 307.659 27.4801 306.763 26.3281C305.867 25.1761 304.438 24.6001 302.475 24.6001C300.982 24.6001 299.467 25.0481 297.931 25.9441C296.438 26.8401 295.158 28.0348 294.091 29.5281L293.835 28.7601C297.419 23.8961 301.174 21.4641 305.099 21.4641C307.446 21.4641 309.259 22.1681 310.539 23.5761C311.862 24.9414 312.523 26.8614 312.523 29.3361V41.8161C312.523 43.0534 312.609 43.9921 312.779 44.6321C312.993 45.2294 313.355 45.6561 313.867 45.9121C314.422 46.1254 315.254 46.2321 316.363 46.2321C316.491 46.2321 316.555 46.3601 316.555 46.6161C316.555 46.8721 316.491 47.0001 316.363 47.0001C315.339 47.0001 314.507 46.9788 313.867 46.9361L310.347 46.8721L306.827 46.9361C306.187 46.9788 305.355 47.0001 304.331 47.0001ZM287.115 47.0001C286.987 47.0001 286.923 46.8721 286.923 46.6161C286.923 46.3601 286.987 46.2321 287.115 46.2321C288.182 46.2321 288.971 46.1254 289.483 45.9121C290.038 45.6561 290.401 45.2294 290.571 44.6321C290.785 43.9921 290.891 43.0534 290.891 41.8161V29.3361C290.891 27.9281 290.721 26.9254 290.379 26.3281C290.081 25.6881 289.547 25.3681 288.779 25.3681C288.054 25.3681 286.923 25.6668 285.387 26.2641H285.259C285.131 26.2641 285.025 26.1574 284.939 25.9441C284.897 25.7308 284.939 25.6028 285.067 25.5601L292.939 21.7841L293.323 21.7201C293.75 21.7201 294.177 22.2321 294.603 23.2561C295.073 24.2374 295.307 25.5388 295.307 27.1601V41.8161C295.307 43.0534 295.393 43.9921 295.563 44.6321C295.777 45.2294 296.139 45.6561 296.651 45.9121C297.206 46.1254 298.038 46.2321 299.147 46.2321C299.275 46.2321 299.339 46.3601 299.339 46.6161C299.339 46.8721 299.275 47.0001 299.147 47.0001C298.123 47.0001 297.291 46.9788 296.651 46.9361L293.131 46.8721L289.547 46.9361C288.95 46.9788 288.139 47.0001 287.115 47.0001ZM333.741 47.7681C330.968 47.7681 328.621 47.1708 326.701 45.9761C324.824 44.7388 323.416 43.1601 322.477 41.2401C321.581 39.3201 321.133 37.2934 321.133 35.1601C321.133 32.4294 321.837 30.0614 323.245 28.0561C324.653 26.0081 326.467 24.4508 328.685 23.3841C330.904 22.2748 333.165 21.7201 335.469 21.7201C337.389 21.7201 339.139 22.1254 340.717 22.9361C342.296 23.7041 343.085 24.6854 343.085 25.8801C343.085 26.5201 342.851 27.0748 342.381 27.5441C341.912 28.0134 341.272 28.2481 340.461 28.2481C339.096 28.2481 338.029 27.4161 337.261 25.7521C336.792 24.7708 336.28 24.0668 335.725 23.6401C335.171 23.2134 334.339 23.0001 333.229 23.0001C331.011 23.0001 329.261 23.9388 327.981 25.8161C326.701 27.6508 326.061 30.1041 326.061 33.1761C326.061 36.7174 326.915 39.6188 328.621 41.8801C330.371 44.1414 333.016 45.2721 336.557 45.2721C338.904 45.2721 341.037 44.6108 342.957 43.2881H343.085C343.213 43.2881 343.32 43.3521 343.405 43.4801C343.533 43.6081 343.533 43.7148 343.405 43.8001C341.912 45.1654 340.397 46.1681 338.861 46.8081C337.325 47.4481 335.619 47.7681 333.741 47.7681Z"></path>
<path fill="black" d="M94.6674 74.019L95.4466 74.0789V88.6447C95.4466 89.6836 95.6364 90.4529 96.0161 90.9524C96.4157 91.4519 97.0151 91.7017 97.8143 91.7017C97.8543 91.7017 97.8742 91.7616 97.8742 91.8815C97.8742 92.0014 97.8543 92.0613 97.8143 92.0613C97.2948 92.0613 96.8952 92.0513 96.6155 92.0313L95.087 92.0014L93.4686 92.0313C93.1688 92.0513 92.7293 92.0613 92.1498 92.0613C92.1099 92.0613 92.0899 92.0014 92.0899 91.8815C92.0899 91.7616 92.1099 91.7017 92.1498 91.7017C93.009 91.7017 93.6384 91.4519 94.038 90.9524C94.4576 90.4529 94.6674 89.6836 94.6674 88.6447V74.019ZM109.833 92.4509C109.833 92.4909 109.783 92.5209 109.683 92.5408C109.603 92.5608 109.543 92.5508 109.503 92.5109L95.3867 75.7873C94.7273 75.008 94.1379 74.4686 93.6184 74.1688C93.0989 73.8492 92.5794 73.6893 92.0599 73.6893C92.02 73.6893 92 73.6294 92 73.5095C92 73.3896 92.02 73.3297 92.0599 73.3297L93.2288 73.3596C93.4686 73.3796 93.8082 73.3896 94.2478 73.3896L95.7763 73.3596C95.9761 73.3397 96.2059 73.3297 96.4656 73.3297C96.6255 73.3297 96.7453 73.3696 96.8253 73.4496C96.9052 73.5295 97.0251 73.6893 97.1849 73.9291L97.9042 74.8881L109.593 88.9743L109.833 92.4509ZM109.833 92.4509L109.083 91.5218V76.7763C109.083 75.7373 108.893 74.9681 108.514 74.4686C108.134 73.9491 107.545 73.6893 106.746 73.6893C106.706 73.6893 106.686 73.6294 106.686 73.5095C106.686 73.3896 106.706 73.3297 106.746 73.3297L107.944 73.3596C108.544 73.3996 109.053 73.4196 109.473 73.4196C109.833 73.4196 110.352 73.3996 111.031 73.3596L112.29 73.3297C112.33 73.3297 112.35 73.3896 112.35 73.5095C112.35 73.6294 112.33 73.6893 112.29 73.6893C110.652 73.6893 109.833 74.7183 109.833 76.7763V92.4509ZM115.391 92.0613C115.331 92.0613 115.301 92.0014 115.301 91.8815C115.301 91.7616 115.331 91.7017 115.391 91.7017C116.11 91.7017 116.63 91.6517 116.949 91.5518C117.289 91.4519 117.519 91.2621 117.639 90.9824C117.758 90.6827 117.818 90.2331 117.818 89.6337V75.7573C117.818 75.1579 117.758 74.7183 117.639 74.4386C117.519 74.1589 117.289 73.969 116.949 73.8691C116.63 73.7493 116.11 73.6893 115.391 73.6893C115.331 73.6893 115.301 73.6294 115.301 73.5095C115.301 73.3896 115.331 73.3297 115.391 73.3297H127.619C127.819 73.3297 127.919 73.4196 127.919 73.5994L127.978 77.3757C127.978 77.4356 127.919 77.4756 127.799 77.4956C127.699 77.4956 127.639 77.4656 127.619 77.4057C127.479 76.3068 127.089 75.4676 126.45 74.8881C125.811 74.3087 124.971 74.019 123.932 74.019H122.404C121.525 74.019 120.935 74.1489 120.636 74.4086C120.336 74.6684 120.186 75.1579 120.186 75.8772V89.5138C120.186 90.2331 120.316 90.7226 120.576 90.9824C120.855 91.2421 121.405 91.372 122.224 91.372H124.202C125.321 91.372 126.25 91.0423 126.989 90.3829C127.749 89.7036 128.268 88.7446 128.548 87.5058C128.548 87.4658 128.588 87.4458 128.668 87.4458C128.728 87.4458 128.778 87.4658 128.818 87.5058C128.878 87.5258 128.908 87.5457 128.908 87.5657C128.708 89.0043 128.608 90.353 128.608 91.6117C128.608 91.7716 128.578 91.8915 128.518 91.9714C128.458 92.0313 128.338 92.0613 128.158 92.0613H115.391ZM126.48 85.1681C126.48 84.3089 126.23 83.6795 125.731 83.2799C125.251 82.8603 124.482 82.6505 123.423 82.6505H119.047V81.9612H123.483C124.502 81.9612 125.251 81.7914 125.731 81.4517C126.21 81.0921 126.45 80.5426 126.45 79.8033C126.45 79.7634 126.5 79.7434 126.6 79.7434C126.72 79.7434 126.78 79.7634 126.78 79.8033L126.75 82.3209L126.78 83.6695C126.82 84.3089 126.84 84.8084 126.84 85.1681C126.84 85.208 126.78 85.228 126.66 85.228C126.54 85.228 126.48 85.208 126.48 85.1681ZM142.214 92.0313C142.195 92.1113 142.085 92.1512 141.885 92.1512C141.685 92.1512 141.575 92.1113 141.555 92.0313L134.033 75.8172C133.653 74.9781 133.293 74.4186 132.954 74.1389C132.634 73.8392 132.174 73.6893 131.575 73.6893C131.515 73.6893 131.485 73.6294 131.485 73.5095C131.485 73.3896 131.515 73.3297 131.575 73.3297L132.504 73.3596C133.024 73.3996 133.513 73.4196 133.973 73.4196C134.872 73.4196 135.761 73.3996 136.64 73.3596C136.92 73.3397 137.299 73.3297 137.779 73.3297C137.839 73.3297 137.869 73.3896 137.869 73.5095C137.869 73.6294 137.839 73.6893 137.779 73.6893C137.199 73.6893 136.78 73.7493 136.52 73.8691C136.26 73.989 136.13 74.2188 136.13 74.5585C136.13 74.8382 136.27 75.2878 136.55 75.9072L142.904 89.4838L141.765 91.1322L145.541 81.5416L146.021 82.2309L142.214 92.0313ZM159.388 73.3297C159.448 73.3297 159.478 73.3896 159.478 73.5095C159.478 73.6294 159.448 73.6893 159.388 73.6893C157.969 73.6893 156.89 74.5984 156.151 76.4166L150.037 92.0313C150.017 92.1113 149.907 92.1512 149.707 92.1512C149.507 92.1512 149.397 92.1113 149.377 92.0313L141.855 75.8172C141.515 75.078 141.166 74.5385 140.806 74.1988C140.466 73.8592 140.047 73.6893 139.547 73.6893C139.487 73.6893 139.457 73.6294 139.457 73.5095C139.457 73.3896 139.487 73.3297 139.547 73.3297L140.476 73.3596C140.956 73.3996 141.395 73.4196 141.795 73.4196C142.554 73.4196 143.253 73.3996 143.893 73.3596C144.093 73.3397 144.362 73.3297 144.702 73.3297C144.762 73.3297 144.792 73.3896 144.792 73.5095C144.792 73.6294 144.762 73.6893 144.702 73.6893C144.362 73.6893 144.113 73.7293 143.953 73.8092C143.813 73.8692 143.743 73.989 143.743 74.1688C143.743 74.4486 143.953 75.028 144.372 75.9072L150.726 89.4838L149.587 91.1322L155.372 76.4166C155.551 75.9371 155.641 75.5275 155.641 75.1879C155.641 74.7083 155.462 74.3387 155.102 74.0789C154.762 73.8192 154.253 73.6893 153.573 73.6893C153.513 73.6893 153.483 73.6294 153.483 73.5095C153.483 73.3896 153.513 73.3297 153.573 73.3297L154.862 73.3596C155.541 73.3996 156.161 73.4196 156.72 73.4196C157.14 73.4196 157.609 73.3996 158.129 73.3596L159.388 73.3297ZM147.759 76.2668C148.039 75.5475 148.179 74.998 148.179 74.6184C148.179 73.999 147.809 73.6893 147.07 73.6893C147.03 73.6893 147.01 73.6294 147.01 73.5095C147.01 73.3896 147.03 73.3297 147.07 73.3297L147.669 73.3596C148.069 73.3996 148.528 73.4196 149.048 73.4196C149.407 73.4196 149.847 73.3996 150.367 73.3596L151.565 73.3297C151.605 73.3297 151.625 73.3896 151.625 73.5095C151.625 73.6294 151.605 73.6893 151.565 73.6893C150.886 73.6893 150.297 73.8991 149.797 74.3187C149.298 74.7383 148.858 75.4376 148.478 76.4166L146.171 82.2309L145.691 81.5416L147.759 76.2668ZM182.11 76.8362C182.59 76.057 182.83 75.4076 182.83 74.8881C182.83 74.0889 182.28 73.6893 181.181 73.6893C181.141 73.6893 181.121 73.6294 181.121 73.5095C181.121 73.3896 181.141 73.3297 181.181 73.3297L182.65 73.3596C183.449 73.3996 184.178 73.4196 184.838 73.4196C185.177 73.4196 185.587 73.3996 186.066 73.3596L187.175 73.3297C187.215 73.3297 187.235 73.3896 187.235 73.5095C187.235 73.6294 187.215 73.6893 187.175 73.6893C186.476 73.6893 185.737 73.989 184.958 74.5884C184.178 75.1879 183.479 75.9871 182.86 76.9861L178.424 83.9992L177.855 83.5197L182.11 76.8362ZM171.98 76.2368C171.341 75.2778 170.771 74.6184 170.272 74.2588C169.792 73.8791 169.273 73.6893 168.714 73.6893C168.654 73.6893 168.624 73.6294 168.624 73.5095C168.624 73.3896 168.654 73.3297 168.714 73.3297C168.933 73.3297 169.283 73.3497 169.762 73.3896L170.752 73.4196C171.411 73.4196 172.32 73.3996 173.479 73.3596L175.217 73.3297C175.257 73.3297 175.277 73.3896 175.277 73.5095C175.277 73.6294 175.257 73.6893 175.217 73.6893C174.258 73.6893 173.779 73.9291 173.779 74.4086C173.779 74.6284 173.898 74.9081 174.138 75.2478L178.993 82.5306L177.105 83.9093L171.98 76.2368ZM179.143 82.5007V89.6337C179.143 90.2531 179.193 90.7026 179.293 90.9824C179.413 91.2621 179.633 91.4519 179.952 91.5518C180.292 91.6517 180.822 91.7017 181.541 91.7017C181.601 91.7017 181.631 91.7616 181.631 91.8815C181.631 92.0014 181.601 92.0613 181.541 92.0613C180.922 92.0613 180.432 92.0513 180.072 92.0313L177.914 92.0014L175.817 92.0313C175.457 92.0513 174.947 92.0613 174.288 92.0613C174.248 92.0613 174.228 92.0014 174.228 91.8815C174.228 91.7616 174.248 91.7017 174.288 91.7017C175.007 91.7017 175.537 91.6517 175.876 91.5518C176.216 91.4519 176.446 91.2621 176.566 90.9824C176.686 90.6827 176.746 90.2331 176.746 89.6337V82.7704L179.143 82.5007ZM198.324 92.421C196.466 92.421 194.808 91.9914 193.349 91.1322C191.911 90.2531 190.792 89.0742 189.993 87.5957C189.213 86.0972 188.824 84.4688 188.824 82.7105C188.824 80.6525 189.343 78.8942 190.382 77.4357C191.421 75.9571 192.75 74.8482 194.368 74.1089C196.007 73.3696 197.675 73 199.373 73C201.272 73 202.94 73.4496 204.379 74.3487C205.817 75.2278 206.916 76.3967 207.675 77.8552C208.455 79.3138 208.844 80.8623 208.844 82.5007C208.844 84.3189 208.365 85.9873 207.406 87.5058C206.447 89.0243 205.158 90.2231 203.539 91.1022C201.941 91.9814 200.203 92.421 198.324 92.421ZM199.373 91.7616C200.652 91.7616 201.801 91.4319 202.82 90.7726C203.839 90.1132 204.638 89.1542 205.218 87.8954C205.817 86.6166 206.117 85.0981 206.117 83.3399C206.117 81.4817 205.787 79.8233 205.128 78.3647C204.488 76.9062 203.559 75.7673 202.341 74.9481C201.142 74.1289 199.743 73.7193 198.145 73.7193C196.067 73.7193 194.448 74.4286 193.289 75.8472C192.131 77.2458 191.551 79.1839 191.551 81.6615C191.551 83.5596 191.881 85.278 192.54 86.8165C193.199 88.3549 194.119 89.5638 195.297 90.4429C196.496 91.322 197.855 91.7616 199.373 91.7616ZM227.894 92.0613C227.395 92.0613 226.466 91.2221 225.107 89.5438C223.768 87.8654 222.14 85.5177 220.222 82.5007L222.23 81.8713C223.928 84.3688 225.357 86.3169 226.516 87.7156C227.674 89.1142 228.693 90.1332 229.573 90.7726C230.472 91.392 231.341 91.7017 232.18 91.7017C232.24 91.7017 232.27 91.7616 232.27 91.8815C232.27 92.0014 232.24 92.0613 232.18 92.0613H227.894ZM220.671 73.2398C222.33 73.2398 223.608 73.5894 224.508 74.2887C225.407 74.988 225.856 75.9371 225.856 77.1359C225.856 78.2149 225.537 79.2039 224.897 80.103C224.278 80.9822 223.449 81.6815 222.41 82.201C221.371 82.7005 220.262 82.9502 219.083 82.9502C218.663 82.9502 218.174 82.9303 217.614 82.8903V89.6337C217.614 90.2331 217.674 90.6827 217.794 90.9824C217.914 91.2621 218.134 91.4519 218.453 91.5518C218.793 91.6517 219.323 91.7017 220.042 91.7017C220.102 91.7017 220.132 91.7616 220.132 91.8815C220.132 92.0014 220.102 92.0613 220.042 92.0613C219.423 92.0613 218.933 92.0513 218.573 92.0313L216.415 92.0014L214.318 92.0313C213.938 92.0513 213.428 92.0613 212.789 92.0613C212.729 92.0613 212.699 92.0014 212.699 91.8815C212.699 91.7616 212.729 91.7017 212.789 91.7017C213.508 91.7017 214.038 91.6517 214.377 91.5518C214.717 91.4519 214.947 91.2621 215.067 90.9824C215.187 90.6827 215.247 90.2331 215.247 89.6337V75.7573C215.247 75.1579 215.187 74.7183 215.067 74.4386C214.947 74.1589 214.717 73.969 214.377 73.8691C214.058 73.7493 213.538 73.6893 212.819 73.6893C212.779 73.6893 212.759 73.6294 212.759 73.5095C212.759 73.3896 212.779 73.3297 212.819 73.3297L214.318 73.3596C215.197 73.3996 215.896 73.4196 216.415 73.4196C216.835 73.4196 217.235 73.4096 217.614 73.3896C217.994 73.3696 218.324 73.3497 218.603 73.3297C219.363 73.2697 220.052 73.2398 220.671 73.2398ZM223.399 78.095C223.399 76.4966 223.089 75.3777 222.47 74.7383C221.85 74.0789 220.941 73.7493 219.742 73.7493C218.963 73.7493 218.414 73.8991 218.094 74.1988C217.774 74.4785 217.614 75.018 217.614 75.8172V82.141C218.194 82.201 218.783 82.2309 219.383 82.2309C220.821 82.2309 221.85 81.9013 222.47 81.2419C223.089 80.5626 223.399 79.5136 223.399 78.095ZM236.576 75.7573C236.576 75.1579 236.516 74.7183 236.396 74.4386C236.276 74.1589 236.046 73.969 235.707 73.8691C235.387 73.7493 234.867 73.6893 234.148 73.6893C234.088 73.6893 234.058 73.6294 234.058 73.5095C234.058 73.3896 234.088 73.3297 234.148 73.3297L235.647 73.3596C236.526 73.3996 237.225 73.4196 237.745 73.4196C238.304 73.4196 239.023 73.3996 239.902 73.3596L241.371 73.3297C241.411 73.3297 241.431 73.3896 241.431 73.5095C241.431 73.6294 241.411 73.6893 241.371 73.6893C240.672 73.6893 240.152 73.7493 239.813 73.8691C239.473 73.989 239.243 74.1988 239.123 74.4985C239.003 74.7783 238.943 75.2178 238.943 75.8172V89.6337C238.943 90.2531 238.993 90.7026 239.093 90.9824C239.213 91.2621 239.433 91.4519 239.753 91.5518C240.092 91.6517 240.632 91.7017 241.371 91.7017C241.431 91.7017 241.461 91.7616 241.461 91.8815C241.461 92.0014 241.431 92.0613 241.371 92.0613C240.732 92.0613 240.232 92.0513 239.872 92.0313L237.745 92.0014L235.647 92.0313C235.267 92.0513 234.748 92.0613 234.088 92.0613C234.048 92.0613 234.028 92.0014 234.028 91.8815C234.028 91.7616 234.048 91.7017 234.088 91.7017C234.807 91.7017 235.337 91.6517 235.677 91.5518C236.016 91.4519 236.246 91.2621 236.366 90.9824C236.506 90.6827 236.576 90.2331 236.576 89.6337V75.7573ZM239.633 81.8713L241.431 80.3128L245.867 86.0972C247.265 87.9753 248.334 89.304 249.073 90.0832C249.813 90.8425 250.382 91.302 250.782 91.4619C251.201 91.6217 251.781 91.7017 252.52 91.7017C252.58 91.7017 252.61 91.7616 252.61 91.8815C252.61 92.0014 252.58 92.0613 252.52 92.0613H249.163L248.234 92.0913C247.955 92.0913 247.735 92.0513 247.575 91.9714C247.435 91.8915 247.265 91.7416 247.065 91.5218C246.886 91.3021 246.576 90.8925 246.136 90.293C245.956 90.0733 245.717 89.7636 245.417 89.3639C245.117 88.9444 244.708 88.3949 244.188 87.7156L239.633 81.8713ZM245.087 75.9671C245.727 75.2878 246.046 74.7783 246.046 74.4386C246.046 73.9391 245.457 73.6893 244.278 73.6893C244.218 73.6893 244.188 73.6294 244.188 73.5095C244.188 73.3896 244.218 73.3297 244.278 73.3297L245.597 73.3596C246.396 73.3996 247.155 73.4196 247.875 73.4196C248.594 73.4196 249.333 73.3996 250.092 73.3596L251.261 73.3297C251.321 73.3297 251.351 73.3896 251.351 73.5095C251.351 73.6294 251.321 73.6893 251.261 73.6893C250.422 73.6893 249.513 73.8991 248.534 74.3187C247.555 74.7383 246.656 75.3477 245.837 76.1469L238.134 83.7594L237.385 83.7295L245.087 75.9671Z"></path>
</svg>