<svg aria-labelledby="pi-maestro" role="img" height="24" width="38" xmlns="http://www.w3.org/2000/svg" viewBox="0 0 38 24" class="payment-list__item"><title id="pi-maestro">Maestro</title><path d="M35 0H3C1.3 0 0 1.3 0 3v18c0 1.7 1.4 3 3 3h32c1.7 0 3-1.3 3-3V3c0-1.7-1.4-3-3-3z" opacity=".07"></path><path d="M35 1c1.1 0 2 .9 2 2v18c0 1.1-.9 2-2 2H3c-1.1 0-2-.9-2-2V3c0-1.1.9-2 2-2h32" fill="#fff"></path><circle r="7" cy="12" cx="15" fill="#EB001B"></circle><circle r="7" cy="12" cx="23" fill="#00A2E5"></circle><path d="M22 12c0-2.4-1.2-4.5-3-5.7-1.8 1.3-3 3.4-3 5.7s1.2 4.5 3 5.7c1.8-1.2 3-3.3 3-5.7z" fill="#7375CF"></path></svg>